<mxfile host="app.diagrams.net" modified="2022-09-13T14:15:39.487Z" agent="5.0 (Windows NT 10.0; Win64; x64) AppleWebKit/537.36 (KHTML, like Gecko) Chrome/104.0.0.0 Safari/537.36" etag="_PfFgSbs9XjiHvH65_Qw" version="20.3.0" type="github" pages="2">
  <diagram id="T-eQUspOFnynLqRNxrah" name="Video Uploading Scenario">
    <mxGraphModel dx="1422" dy="729" grid="1" gridSize="10" guides="1" tooltips="1" connect="1" arrows="1" fold="1" page="1" pageScale="1" pageWidth="850" pageHeight="1100" math="0" shadow="0">
      <root>
        <mxCell id="0" />
        <mxCell id="1" parent="0" />
        <mxCell id="gZxkg9Pe2Q-J1JH7AX3k-7" value="" style="edgeStyle=orthogonalEdgeStyle;rounded=0;orthogonalLoop=1;jettySize=auto;html=1;" edge="1" parent="1" source="JewuoOUDM-Pkr8ruR0OP-1" target="gZxkg9Pe2Q-J1JH7AX3k-6">
          <mxGeometry relative="1" as="geometry" />
        </mxCell>
        <mxCell id="JewuoOUDM-Pkr8ruR0OP-1" value="API Gateway" style="rounded=0;whiteSpace=wrap;html=1;" parent="1" vertex="1">
          <mxGeometry x="200" y="200" width="120" height="60" as="geometry" />
        </mxCell>
        <mxCell id="JewuoOUDM-Pkr8ruR0OP-4" style="edgeStyle=orthogonalEdgeStyle;rounded=0;orthogonalLoop=1;jettySize=auto;html=1;entryX=0;entryY=0.5;entryDx=0;entryDy=0;" parent="1" source="JewuoOUDM-Pkr8ruR0OP-2" target="JewuoOUDM-Pkr8ruR0OP-1" edge="1">
          <mxGeometry relative="1" as="geometry" />
        </mxCell>
        <mxCell id="JewuoOUDM-Pkr8ruR0OP-2" value="Actor" style="shape=umlActor;verticalLabelPosition=bottom;verticalAlign=top;html=1;outlineConnect=0;" parent="1" vertex="1">
          <mxGeometry x="90" y="200" width="30" height="60" as="geometry" />
        </mxCell>
        <mxCell id="gZxkg9Pe2Q-J1JH7AX3k-9" style="edgeStyle=orthogonalEdgeStyle;rounded=0;orthogonalLoop=1;jettySize=auto;html=1;entryX=0;entryY=0.5;entryDx=0;entryDy=0;entryPerimeter=0;" edge="1" parent="1" source="gZxkg9Pe2Q-J1JH7AX3k-1" target="gZxkg9Pe2Q-J1JH7AX3k-5">
          <mxGeometry relative="1" as="geometry" />
        </mxCell>
        <mxCell id="gZxkg9Pe2Q-J1JH7AX3k-10" style="edgeStyle=orthogonalEdgeStyle;rounded=0;orthogonalLoop=1;jettySize=auto;html=1;entryX=0.5;entryY=0;entryDx=0;entryDy=0;" edge="1" parent="1" source="gZxkg9Pe2Q-J1JH7AX3k-1" target="gZxkg9Pe2Q-J1JH7AX3k-3">
          <mxGeometry relative="1" as="geometry" />
        </mxCell>
        <mxCell id="gZxkg9Pe2Q-J1JH7AX3k-1" value="Video Uploader Service" style="rounded=0;whiteSpace=wrap;html=1;" vertex="1" parent="1">
          <mxGeometry x="560" y="200" width="120" height="60" as="geometry" />
        </mxCell>
        <mxCell id="gZxkg9Pe2Q-J1JH7AX3k-15" style="edgeStyle=orthogonalEdgeStyle;rounded=0;orthogonalLoop=1;jettySize=auto;html=1;" edge="1" parent="1" source="gZxkg9Pe2Q-J1JH7AX3k-3">
          <mxGeometry relative="1" as="geometry">
            <mxPoint x="770" y="250" as="targetPoint" />
          </mxGeometry>
        </mxCell>
        <mxCell id="gZxkg9Pe2Q-J1JH7AX3k-3" value="Mpeg Transcoder Service" style="whiteSpace=wrap;html=1;rounded=0;" vertex="1" parent="1">
          <mxGeometry x="560" y="310" width="120" height="60" as="geometry" />
        </mxCell>
        <mxCell id="gZxkg9Pe2Q-J1JH7AX3k-5" value="" style="verticalLabelPosition=bottom;html=1;verticalAlign=top;align=center;strokeColor=none;fillColor=#00BEF2;shape=mxgraph.azure.storage_blob;" vertex="1" parent="1">
          <mxGeometry x="740" y="200" width="50" height="45" as="geometry" />
        </mxCell>
        <mxCell id="gZxkg9Pe2Q-J1JH7AX3k-8" style="edgeStyle=orthogonalEdgeStyle;rounded=0;orthogonalLoop=1;jettySize=auto;html=1;" edge="1" parent="1" source="gZxkg9Pe2Q-J1JH7AX3k-6" target="gZxkg9Pe2Q-J1JH7AX3k-1">
          <mxGeometry relative="1" as="geometry" />
        </mxCell>
        <mxCell id="gZxkg9Pe2Q-J1JH7AX3k-6" value="Video Connector Service" style="whiteSpace=wrap;html=1;rounded=0;" vertex="1" parent="1">
          <mxGeometry x="390" y="200" width="110" height="60" as="geometry" />
        </mxCell>
        <mxCell id="gZxkg9Pe2Q-J1JH7AX3k-13" value="Video Uploading Service" style="rounded=1;whiteSpace=wrap;html=1;fillColor=#dae8fc;strokeColor=#6c8ebf;" vertex="1" parent="1">
          <mxGeometry x="230" y="60" width="360" height="20" as="geometry" />
        </mxCell>
        <mxCell id="gZxkg9Pe2Q-J1JH7AX3k-16" style="edgeStyle=orthogonalEdgeStyle;rounded=0;orthogonalLoop=1;jettySize=auto;html=1;" edge="1" parent="1" source="gZxkg9Pe2Q-J1JH7AX3k-14">
          <mxGeometry relative="1" as="geometry">
            <mxPoint x="770" y="340" as="targetPoint" />
          </mxGeometry>
        </mxCell>
        <mxCell id="gZxkg9Pe2Q-J1JH7AX3k-14" value="Avi Transcoder Service" style="whiteSpace=wrap;html=1;rounded=0;" vertex="1" parent="1">
          <mxGeometry x="600" y="360" width="120" height="60" as="geometry" />
        </mxCell>
        <mxCell id="gZxkg9Pe2Q-J1JH7AX3k-22" value="" style="aspect=fixed;html=1;points=[];align=center;image;fontSize=12;image=img/lib/azure2/databases/SQL_Database.svg;" vertex="1" parent="1">
          <mxGeometry x="780" y="110" width="30" height="40" as="geometry" />
        </mxCell>
        <mxCell id="gZxkg9Pe2Q-J1JH7AX3k-30" value="" style="edgeStyle=elbowEdgeStyle;elbow=horizontal;endArrow=classic;html=1;rounded=0;exitX=0.433;exitY=-0.083;exitDx=0;exitDy=0;exitPerimeter=0;entryX=0.033;entryY=0.75;entryDx=0;entryDy=0;entryPerimeter=0;" edge="1" parent="1" target="gZxkg9Pe2Q-J1JH7AX3k-22">
          <mxGeometry width="50" height="50" relative="1" as="geometry">
            <mxPoint x="680.96" y="203.01999999999998" as="sourcePoint" />
            <mxPoint x="719" y="138" as="targetPoint" />
          </mxGeometry>
        </mxCell>
        <mxCell id="gZxkg9Pe2Q-J1JH7AX3k-32" value="" style="edgeStyle=segmentEdgeStyle;endArrow=classic;html=1;rounded=0;entryX=0.6;entryY=1;entryDx=0;entryDy=0;entryPerimeter=0;exitX=1;exitY=0.75;exitDx=0;exitDy=0;" edge="1" parent="1" source="gZxkg9Pe2Q-J1JH7AX3k-14" target="gZxkg9Pe2Q-J1JH7AX3k-22">
          <mxGeometry width="50" height="50" relative="1" as="geometry">
            <mxPoint x="744" y="419" as="sourcePoint" />
            <mxPoint x="800" y="170" as="targetPoint" />
          </mxGeometry>
        </mxCell>
        <mxCell id="gZxkg9Pe2Q-J1JH7AX3k-34" style="edgeStyle=orthogonalEdgeStyle;rounded=0;orthogonalLoop=1;jettySize=auto;html=1;entryX=0.5;entryY=1;entryDx=0;entryDy=0;" edge="1" parent="1" source="gZxkg9Pe2Q-J1JH7AX3k-33" target="JewuoOUDM-Pkr8ruR0OP-1">
          <mxGeometry relative="1" as="geometry" />
        </mxCell>
        <mxCell id="gZxkg9Pe2Q-J1JH7AX3k-33" value="Authentication,&lt;br&gt;Load Balancing" style="shape=note;whiteSpace=wrap;html=1;backgroundOutline=1;darkOpacity=0.05;" vertex="1" parent="1">
          <mxGeometry x="220" y="310" width="100" height="100" as="geometry" />
        </mxCell>
        <mxCell id="gZxkg9Pe2Q-J1JH7AX3k-36" style="edgeStyle=orthogonalEdgeStyle;rounded=0;orthogonalLoop=1;jettySize=auto;html=1;entryX=0.5;entryY=1;entryDx=0;entryDy=0;" edge="1" parent="1" source="gZxkg9Pe2Q-J1JH7AX3k-35" target="gZxkg9Pe2Q-J1JH7AX3k-6">
          <mxGeometry relative="1" as="geometry" />
        </mxCell>
        <mxCell id="gZxkg9Pe2Q-J1JH7AX3k-35" value="Intial metadata collection, Updating state, Inform Video Uploader Service." style="shape=note;whiteSpace=wrap;html=1;backgroundOutline=1;darkOpacity=0.05;" vertex="1" parent="1">
          <mxGeometry x="390" y="310" width="100" height="100" as="geometry" />
        </mxCell>
        <mxCell id="gZxkg9Pe2Q-J1JH7AX3k-38" value="" style="edgeStyle=elbowEdgeStyle;elbow=horizontal;endArrow=classic;html=1;rounded=0;entryX=-0.033;entryY=0.225;entryDx=0;entryDy=0;entryPerimeter=0;" edge="1" parent="1" target="gZxkg9Pe2Q-J1JH7AX3k-22">
          <mxGeometry width="50" height="50" relative="1" as="geometry">
            <mxPoint x="500" y="210" as="sourcePoint" />
            <mxPoint x="570" y="120" as="targetPoint" />
            <Array as="points">
              <mxPoint x="510" y="190" />
            </Array>
          </mxGeometry>
        </mxCell>
        <mxCell id="gZxkg9Pe2Q-J1JH7AX3k-40" style="edgeStyle=orthogonalEdgeStyle;rounded=0;orthogonalLoop=1;jettySize=auto;html=1;entryX=0;entryY=0.75;entryDx=0;entryDy=0;" edge="1" parent="1" source="gZxkg9Pe2Q-J1JH7AX3k-39" target="gZxkg9Pe2Q-J1JH7AX3k-1">
          <mxGeometry relative="1" as="geometry" />
        </mxCell>
        <mxCell id="gZxkg9Pe2Q-J1JH7AX3k-39" value="Extract detailed metadata , invoke different transcoder services" style="shape=note;whiteSpace=wrap;html=1;backgroundOutline=1;darkOpacity=0.05;" vertex="1" parent="1">
          <mxGeometry x="480" y="430" width="100" height="100" as="geometry" />
        </mxCell>
      </root>
    </mxGraphModel>
  </diagram>
  <diagram id="nNjNgDE7EbX-Tkwo3UuX" name="Page-2">
    <mxGraphModel dx="1422" dy="729" grid="1" gridSize="10" guides="1" tooltips="1" connect="1" arrows="1" fold="1" page="1" pageScale="1" pageWidth="850" pageHeight="1100" math="0" shadow="0">
      <root>
        <mxCell id="0" />
        <mxCell id="1" parent="0" />
      </root>
    </mxGraphModel>
  </diagram>
</mxfile>
